<svg width="390" height="95" viewBox="0 0 390 95" fill="none" xmlns="http://www.w3.org/2000/svg">
<path d="M44.03 14.324H45.696V23.592H44.03V14.324ZM45.22 17.992H47.46V19.364H45.22V17.992ZM40.46 15.29H42.224C42.224 16.438 41.986 17.4693 41.51 18.384C41.0433 19.2987 40.362 20.0827 39.466 20.736C38.5793 21.3893 37.5013 21.9073 36.232 22.29L35.546 20.96C36.6007 20.652 37.492 20.2553 38.22 19.77C38.9573 19.2847 39.5127 18.7293 39.886 18.104C40.2687 17.4787 40.46 16.8067 40.46 16.088V15.29ZM36.092 15.29H41.342V16.634H36.092V15.29ZM37.464 25.622H46.172V26.952H37.464V25.622ZM37.464 22.654H39.13V26.21H37.464V22.654ZM57.5389 14.324H59.2189V23.83H57.5389V14.324ZM48.8169 15.262H55.6069V16.606H48.8169V15.262ZM48.6629 22.192L48.4949 20.82C49.1949 20.82 49.9649 20.8153 50.8049 20.806C51.6449 20.7873 52.4989 20.7593 53.3669 20.722C54.2442 20.6753 55.0702 20.6053 55.8449 20.512L55.9429 21.744C55.1402 21.8747 54.3049 21.9727 53.4369 22.038C52.5782 22.094 51.7382 22.136 50.9169 22.164C50.1049 22.1827 49.3536 22.192 48.6629 22.192ZM49.9089 16.438H51.5189V20.988H49.9089V16.438ZM52.9189 16.438H54.5149V20.988H52.9189V16.438ZM55.8169 16.62H58.4489V17.964H55.8169V16.62ZM55.8169 19.182H58.4489V20.512H55.8169V19.182ZM50.7769 25.622H59.5129V26.952H50.7769V25.622ZM50.7769 23.102H52.4429V26.588H50.7769V23.102ZM64.518 20.96H76.18V22.29H64.518V20.96ZM69.642 21.66H71.322V24.446H69.642V21.66ZM65.904 25.622H74.892V26.952H65.904V25.622ZM65.904 23.424H67.556V26.168H65.904V23.424ZM66.016 14.73H67.668V16.13H73.016V14.73H74.668V19.98H66.016V14.73ZM67.668 17.39V18.678H73.016V17.39H67.668ZM83.9909 16.788H86.7209V18.146H83.9909V16.788ZM80.4209 14.982H81.7789V16.228C81.7789 17.068 81.6483 17.8567 81.3869 18.594C81.1256 19.3313 80.7289 19.9753 80.1969 20.526C79.6743 21.0673 79.0163 21.478 78.2229 21.758L77.3409 20.442C78.0409 20.2087 78.6196 19.8773 79.0769 19.448C79.5343 19.0093 79.8703 18.5147 80.0849 17.964C80.3089 17.404 80.4209 16.8253 80.4209 16.228V14.982ZM80.7569 14.982H82.1009V16.326C82.1009 16.7367 82.1616 17.138 82.2829 17.53C82.4043 17.922 82.5863 18.2907 82.8289 18.636C83.0716 18.9813 83.3749 19.2893 83.7389 19.56C84.1123 19.8307 84.5463 20.05 85.0409 20.218L84.1729 21.52C83.4169 21.2587 82.7823 20.8667 82.2689 20.344C81.7649 19.8213 81.3869 19.2147 81.1349 18.524C80.8829 17.8333 80.7569 17.1007 80.7569 16.326V14.982ZM79.3989 22.584H88.1349V27.204H86.4549V23.914H79.3989V22.584ZM86.4549 14.324H88.1349V21.968H86.4549V14.324Z" fill="#00477B"/>
<circle cx="25" cy="21.2539" r="4" stroke="url(#paint0_linear_3398_197)" stroke-width="2"/>
<g filter="url(#filter0_i_3398_197)">
<rect x="80.7139" y="45" width="57.1429" height="50" rx="7.14286" fill="#F6FCFF"/>
</g>
<rect x="81.2139" y="45.5" width="56.1429" height="49" rx="6.64286" stroke="#00A3FF"/>
<path d="M103.669 81.2143H104.595V81.4971C104.595 81.96 104.515 82.3971 104.355 82.8086C104.195 83.22 103.949 83.5771 103.618 83.88C103.292 84.1829 102.878 84.4086 102.375 84.5571L101.835 83.6743C102.264 83.5486 102.612 83.3743 102.881 83.1514C103.155 82.9229 103.355 82.6657 103.481 82.38C103.607 82.0886 103.669 81.7943 103.669 81.4971V81.2143ZM103.884 81.2143H104.809V81.4971C104.809 81.7029 104.844 81.9057 104.912 82.1057C104.987 82.3057 105.098 82.4943 105.247 82.6714C105.401 82.8486 105.595 83.0057 105.829 83.1429C106.064 83.28 106.338 83.3914 106.652 83.4771L106.138 84.3686C105.635 84.2314 105.215 84.0229 104.878 83.7429C104.547 83.4571 104.298 83.12 104.132 82.7314C103.967 82.3429 103.884 81.9314 103.884 81.4971V81.2143ZM102.109 80.64H106.378V81.54H102.109V80.64ZM103.669 79.7914H104.809V81H103.669V79.7914ZM106.155 81.9343H107.664V82.8514H106.155V81.9343ZM107.389 79.8257H108.538V84.6171H107.389V79.8257ZM105.847 84.7457C106.687 84.7457 107.349 84.8771 107.835 85.14C108.321 85.4029 108.564 85.7743 108.564 86.2543C108.564 86.7286 108.321 87.0971 107.835 87.36C107.349 87.6286 106.687 87.7629 105.847 87.7629C105.007 87.7629 104.344 87.6286 103.858 87.36C103.372 87.0971 103.129 86.7286 103.129 86.2543C103.129 85.7743 103.372 85.4029 103.858 85.14C104.344 84.8771 105.007 84.7457 105.847 84.7457ZM105.847 85.62C105.504 85.62 105.212 85.6429 104.972 85.6886C104.738 85.7343 104.561 85.8057 104.441 85.9029C104.321 85.9943 104.261 86.1114 104.261 86.2543C104.261 86.3914 104.321 86.5086 104.441 86.6057C104.561 86.7029 104.738 86.7743 104.972 86.82C105.212 86.8657 105.504 86.8886 105.847 86.8886C106.195 86.8886 106.487 86.8657 106.721 86.82C106.955 86.7743 107.129 86.7029 107.244 86.6057C107.364 86.5086 107.424 86.3914 107.424 86.2543C107.424 86.1114 107.364 85.9943 107.244 85.9029C107.129 85.8057 106.955 85.7343 106.721 85.6886C106.487 85.6429 106.195 85.62 105.847 85.62ZM115.274 79.8171H116.423V85.6543H115.274V79.8171ZM113.354 80.7086H115.66V81.6H113.354V80.7086ZM111.177 86.7086H116.594V87.6257H111.177V86.7086ZM111.177 85.14H112.317V87.18H111.177V85.14ZM110.209 80.3229H111.34V84.0514H110.209V80.3229ZM110.209 83.7086H110.843C111.42 83.7086 111.972 83.6914 112.497 83.6571C113.029 83.6229 113.577 83.5571 114.143 83.46L114.254 84.3857C113.672 84.4886 113.106 84.5571 112.557 84.5914C112.009 84.6257 111.437 84.6429 110.843 84.6429H110.209V83.7086ZM113.354 82.1829H115.66V83.0829H113.354V82.1829Z" fill="#00477B"/>
<path fill-rule="evenodd" clip-rule="evenodd" d="M107.281 52.7994C106.772 53.107 106.442 53.5822 106.301 53.9145L106.26 54.0092L106.177 54.0697L105.746 54.3831C105.649 54.4532 105.592 54.5652 105.592 54.6845V56.4407C105.656 56.4302 105.72 56.4236 105.786 56.4212V56.2615C105.786 55.4848 106.545 54.965 107.26 55.1507C107.81 55.2938 108.458 55.4243 108.956 55.4208C109.427 55.4174 110.035 55.2926 110.56 55.1549C111.274 54.967 112.036 55.4865 112.036 56.2647V56.4212C112.132 56.4247 112.226 56.4371 112.317 56.4575V54.9126V54.8747L112.324 54.8376C112.499 53.9855 112.497 53.4172 112.438 53.063C112.433 53.0346 112.428 53.0077 112.423 52.9823C112.216 53.1231 111.973 53.1913 111.755 53.2193C111.346 53.2718 110.919 53.2032 110.646 53.1268L110.634 53.1232L110.622 53.1188L109.36 52.6666L109.359 52.6664C108.456 52.3469 107.774 52.5017 107.281 52.7994ZM112.768 57.9546C112.768 58.3712 112.445 58.7124 112.036 58.7418V57.1674C112.445 57.1968 112.768 57.538 112.768 57.9546ZM110.842 61.252C111.395 60.8167 111.798 60.1987 111.959 59.489H111.978C112.826 59.489 113.513 58.802 113.513 57.9546C113.513 57.53 113.34 57.1458 113.062 56.868V54.9501C113.242 54.0582 113.251 53.4052 113.173 52.9408C113.134 52.7051 113.072 52.5114 112.993 52.3581C112.917 52.2108 112.814 52.077 112.678 51.9959L112.285 51.7599L112.135 52.1931C112.083 52.3409 111.945 52.4436 111.66 52.4801C111.385 52.5155 111.069 52.4698 110.86 52.4127L109.61 51.9646L109.609 51.9641C108.492 51.5691 107.578 51.7496 106.896 52.1615C106.277 52.5352 105.868 53.0875 105.659 53.5248L105.308 53.7803C105.018 53.9906 104.847 54.3267 104.847 54.6845V56.6998H104.96C104.567 56.9776 104.309 57.436 104.309 57.9546C104.309 58.802 104.996 59.489 105.844 59.489H105.864C106.027 60.2112 106.441 60.8384 107.009 61.2748V61.7497L103.163 63.2946C102.175 63.6917 101.527 64.6497 101.527 65.7148V70.8879V71.2605H101.9H115.878H116.25V70.8879V65.6259C116.25 64.5489 115.588 63.5827 114.584 63.1938L110.847 61.7463V61.252H110.842ZM105.786 57.1674C105.377 57.1968 105.055 57.538 105.055 57.9546C105.055 58.3711 105.377 58.7123 105.786 58.7418V57.1674ZM107.754 61.8407V61.699C108.112 61.8416 108.502 61.9201 108.911 61.9201C109.333 61.9201 109.734 61.8367 110.101 61.6854V61.85L109.327 62.6441H108.607L107.754 61.8407ZM105.881 63.006L103.441 63.9861C102.735 64.2697 102.273 64.954 102.273 65.7148V70.5154H103.979V65.4684C103.979 65.2627 104.145 65.0958 104.351 65.0958C104.557 65.0958 104.724 65.2627 104.724 65.4684V70.5154H107.49L107.586 69.2398L107.695 67.8088L107.808 66.3127L107.91 64.9702L107.946 64.5021C107.949 64.4654 107.957 64.4303 107.969 64.3975L107.906 64.3126L107.901 64.3179L107.654 64.58L107.384 64.3416L105.931 63.0596C105.912 63.0431 105.896 63.0251 105.881 63.006ZM106.647 62.6981L107.607 63.5444L107.67 63.4773L108.016 63.1107L107.3 62.4361L106.647 62.6981ZM108.758 63.3893C108.742 63.4195 108.722 63.4479 108.698 63.4738L108.426 63.7619L108.614 64.0169H109.229L109.455 63.729L109.239 63.4434C109.225 63.4261 109.214 63.408 109.204 63.3893H108.758ZM109.918 63.1058L110.223 63.5078L110.246 63.5386L111.308 62.7241L110.569 62.4379L109.918 63.1058ZM112.117 63.0373C112.103 63.0511 112.089 63.064 112.074 63.0759L110.403 64.3578L110.105 64.5858L109.921 64.3427L109.871 64.4057C109.881 64.4341 109.888 64.4642 109.891 64.4955L110.052 66.2115L110.201 67.8022L110.371 69.6169L110.455 70.5154H113.224V65.4684C113.224 65.2627 113.391 65.0958 113.596 65.0958C113.802 65.0958 113.969 65.2627 113.969 65.4684V70.5154H115.505V65.6259C115.505 64.8566 115.032 64.1665 114.315 63.8887L112.117 63.0373ZM109.168 64.7621H108.673L108.667 64.8429L109.222 65.3373L109.168 64.7621ZM109.707 70.5154L109.642 69.8268L108.379 68.6414L108.342 69.1332L109.465 70.3355C109.513 70.3877 109.544 70.4502 109.557 70.5154H109.707ZM108.613 70.5154L108.265 70.143L108.237 70.5154H108.613ZM108.596 65.7781L109.324 66.4268L109.369 66.9165L108.565 66.1873L108.596 65.7781ZM108.494 67.1285L109.472 68.0158L109.537 68.7063L108.452 67.6873L108.494 67.1285ZM107.072 55.8719C106.792 55.7991 106.531 56.0109 106.531 56.2615V58.7953C106.531 60.1095 107.597 61.1749 108.911 61.1749C110.225 61.1749 111.291 60.1095 111.291 58.7953V56.2647C111.291 56.0138 111.029 55.8018 110.749 55.8756C110.213 56.0164 109.53 56.1619 108.961 56.1659C108.36 56.1702 107.634 56.0179 107.072 55.8719Z" fill="#0864F0"/>
<rect x="20" y="45" width="57.1429" height="50" rx="7.14286" fill="white"/>
<path d="M39.1559 79.92H39.8673V85.6029H39.1559V79.92ZM34.8873 86.9143H40.1073V87.4971H34.8873V86.9143ZM34.8873 85.08H35.5988V87.1886H34.8873V85.08ZM35.5302 80.3486H36.1216V81.1286C36.1216 81.6371 36.033 82.1143 35.8559 82.56C35.6788 83 35.4273 83.3886 35.1016 83.7257C34.7816 84.0571 34.4045 84.3114 33.9702 84.4886L33.593 83.9229C33.9873 83.7686 34.3273 83.5486 34.613 83.2629C34.9045 82.9771 35.1302 82.6514 35.2902 82.2857C35.4502 81.9143 35.5302 81.5286 35.5302 81.1286V80.3486ZM35.6588 80.3486H36.2502V81.1286C36.2502 81.42 36.2959 81.7029 36.3873 81.9771C36.4788 82.2457 36.6102 82.4971 36.7816 82.7314C36.953 82.9657 37.1559 83.1743 37.3902 83.3571C37.6302 83.5343 37.893 83.6743 38.1788 83.7771L37.8102 84.3429C37.3816 84.1771 37.0045 83.9371 36.6788 83.6229C36.3588 83.3029 36.1073 82.9314 35.9245 82.5086C35.7473 82.08 35.6588 81.62 35.6588 81.1286V80.3486ZM41.4009 84.4886H48.4038V85.0543H41.4009V84.4886ZM44.5467 83.6657H45.2581V84.7371H44.5467V83.6657ZM42.3009 86.9229H47.6238V87.4971H42.3009V86.9229ZM42.3009 85.56H43.0124V87.2314H42.3009V85.56ZM41.7695 80.6314H48.0009V81.18H41.7695V80.6314ZM44.8981 81.5229C45.6924 81.5229 46.3067 81.6229 46.7409 81.8229C47.1809 82.0229 47.4009 82.3143 47.4009 82.6971C47.4009 83.08 47.1809 83.3743 46.7409 83.58C46.3067 83.78 45.6924 83.88 44.8981 83.88C44.1038 83.88 43.4867 83.78 43.0467 83.58C42.6124 83.3743 42.3952 83.08 42.3952 82.6971C42.3952 82.3143 42.6124 82.0229 43.0467 81.8229C43.4867 81.6229 44.1038 81.5229 44.8981 81.5229ZM44.8981 82.0371C44.3267 82.0371 43.8867 82.0943 43.5781 82.2086C43.2695 82.3171 43.1152 82.48 43.1152 82.6971C43.1152 82.9143 43.2695 83.08 43.5781 83.1943C43.8867 83.3029 44.3267 83.3571 44.8981 83.3571C45.4695 83.3571 45.9095 83.3029 46.2181 83.1943C46.5267 83.08 46.6809 82.9143 46.6809 82.6971C46.6809 82.48 46.5267 82.3171 46.2181 82.2086C45.9095 82.0943 45.4695 82.0371 44.8981 82.0371ZM44.5467 79.8257H45.2581V80.94H44.5467V79.8257ZM49.2774 84.5057H56.306V85.08H49.2774V84.5057ZM52.4231 84.7714H53.126V87.6686H52.4231V84.7714ZM50.1689 80.2286H50.8717V81.2914H54.7031V80.2286H55.4146V83.58H50.1689V80.2286ZM50.8717 81.8657V82.9971H54.7031V81.8657H50.8717ZM57.1625 84.5057H64.191V85.08H57.1625V84.5057ZM60.3082 84.7714H61.011V87.6686H60.3082V84.7714ZM58.0539 80.2286H58.7568V81.2914H62.5882V80.2286H63.2996V83.58H58.0539V80.2286ZM58.7568 81.8657V82.9971H62.5882V81.8657H58.7568Z" fill="#424242"/>
<path fill-rule="evenodd" clip-rule="evenodd" d="M39.8985 53.2123C42.1594 51.2339 45.5423 51.2576 47.7754 53.2674L48.857 54.2409L49.9382 53.2679C52.1716 51.2578 55.5549 51.2341 57.8162 53.2128C60.3997 55.4734 60.5321 59.4479 58.1046 61.8754L49.2102 70.7698C49.015 70.9651 48.6984 70.9651 48.5031 70.7698C48.4921 70.7587 48.4816 70.7473 48.4718 70.7355L39.6101 61.8737C37.1829 59.4466 37.3152 55.4726 39.8985 53.2123ZM55.9297 62.6361L57.3975 61.1683C59.4159 59.1499 59.3059 55.845 57.1577 53.9653C55.2774 52.3201 52.4642 52.3398 50.6072 54.0112L49.1912 55.2856C48.9933 55.4636 48.6925 55.4546 48.5056 55.27L47.1064 54.0107C45.2496 52.3396 42.4369 52.3199 40.557 53.9649C38.4091 55.8443 38.2991 59.1485 40.3172 61.1666L41.859 62.7084C42.278 62.2698 42.8978 61.8624 43.6381 61.6188C43.0452 61.1617 42.6633 60.4444 42.6633 59.6378C42.6633 58.2571 43.7826 57.1378 45.1633 57.1378C46.544 57.1378 47.6633 58.2571 47.6633 59.6378C47.6633 60.4694 47.2573 61.2062 46.6327 61.6607C47.4085 61.9415 48.1908 62.4529 48.9299 63.2639C49.669 62.4529 50.4513 61.9415 51.2272 61.6607C50.6025 61.2062 50.1965 60.4694 50.1965 59.6378C50.1965 58.2571 51.3158 57.1378 52.6965 57.1378C54.0772 57.1378 55.1965 58.2571 55.1965 59.6378C55.1965 60.4444 54.8146 61.1617 54.2218 61.6188C54.9212 61.849 55.5131 62.2254 55.9297 62.6361ZM55.2226 63.3432C54.7367 62.8664 53.8736 62.4106 52.8632 62.3869C51.8427 62.3629 50.6213 62.7796 49.4581 64.1799L49.3761 69.1897L55.2226 63.3432ZM48.3754 69.2249L42.5663 63.4158C43.0361 62.9137 43.935 62.4118 44.9967 62.3869C46.0333 62.3625 47.2773 62.7929 48.4569 64.2472L48.3754 69.2249ZM46.6633 59.6378C46.6633 60.4663 45.9917 61.1378 45.1633 61.1378C44.3349 61.1378 43.6633 60.4663 43.6633 59.6378C43.6633 58.8094 44.3349 58.1378 45.1633 58.1378C45.9917 58.1378 46.6633 58.8094 46.6633 59.6378ZM52.6965 61.1378C51.8681 61.1378 51.1965 60.4663 51.1965 59.6378C51.1965 58.8094 51.8681 58.1378 52.6965 58.1378C53.5249 58.1378 54.1965 58.8094 54.1965 59.6378C54.1965 60.4663 53.5249 61.1378 52.6965 61.1378Z" fill="#6D6D6D"/>
<rect x="141.429" y="45" width="57.1429" height="50" rx="7.14286" fill="white"/>
<path d="M164.598 80.7429H165.18V81.3686C165.18 81.8486 165.089 82.2914 164.906 82.6971C164.729 83.1029 164.478 83.4571 164.152 83.76C163.832 84.0629 163.452 84.2943 163.012 84.4543L162.652 83.8886C163.04 83.7514 163.38 83.5571 163.672 83.3057C163.963 83.0486 164.189 82.7543 164.349 82.4229C164.515 82.0914 164.598 81.74 164.598 81.3686V80.7429ZM164.726 80.7429H165.309V81.3686C165.309 81.7057 165.386 82.0257 165.54 82.3286C165.695 82.6314 165.912 82.8971 166.192 83.1257C166.472 83.3543 166.8 83.5343 167.178 83.6657L166.843 84.2229C166.409 84.0743 166.035 83.86 165.72 83.58C165.406 83.3 165.16 82.9714 164.983 82.5943C164.812 82.2114 164.726 81.8029 164.726 81.3686V80.7429ZM162.866 80.4857H167.015V81.0686H162.866V80.4857ZM167.992 79.9114H168.703V84.5829H167.992V79.9114ZM168.506 81.8829H169.843V82.4743H168.506V81.8829ZM166.235 84.7971C166.76 84.7971 167.212 84.8543 167.589 84.9686C167.972 85.0771 168.266 85.2371 168.472 85.4486C168.678 85.66 168.78 85.9171 168.78 86.22C168.78 86.5229 168.678 86.78 168.472 86.9914C168.266 87.2029 167.972 87.3657 167.589 87.48C167.212 87.5943 166.76 87.6514 166.235 87.6514C165.709 87.6514 165.255 87.5943 164.872 87.48C164.489 87.3657 164.195 87.2029 163.989 86.9914C163.783 86.78 163.68 86.5229 163.68 86.22C163.68 85.9171 163.783 85.66 163.989 85.4486C164.195 85.2371 164.489 85.0771 164.872 84.9686C165.255 84.8543 165.709 84.7971 166.235 84.7971ZM166.235 85.3629C165.852 85.3629 165.52 85.3971 165.24 85.4657C164.966 85.5343 164.755 85.6314 164.606 85.7571C164.458 85.8829 164.383 86.0371 164.383 86.22C164.383 86.4029 164.458 86.56 164.606 86.6914C164.755 86.8171 164.966 86.9143 165.24 86.9829C165.52 87.0514 165.852 87.0857 166.235 87.0857C166.618 87.0857 166.946 87.0514 167.22 86.9829C167.495 86.9143 167.706 86.8171 167.855 86.6914C168.003 86.56 168.078 86.4029 168.078 86.22C168.078 86.0371 168.003 85.8829 167.855 85.7571C167.706 85.6314 167.495 85.5343 167.22 85.4657C166.946 85.3971 166.618 85.3629 166.235 85.3629ZM176.237 79.92H176.948V85.6629H176.237V79.92ZM174.043 80.9229H176.503V81.4971H174.043V80.9229ZM171.985 86.9143H177.154V87.4971H171.985V86.9143ZM171.985 85.1657H172.697V87.1714H171.985V85.1657ZM171.025 80.4771H171.728V84.1371H171.025V80.4771ZM171.025 83.9143H171.608C172.157 83.9143 172.7 83.8943 173.237 83.8543C173.78 83.8143 174.351 83.74 174.951 83.6314L175.028 84.2229C174.411 84.3371 173.828 84.4143 173.28 84.4543C172.731 84.4886 172.174 84.5057 171.608 84.5057H171.025V83.9143ZM174.043 82.4057H176.503V82.98H174.043V82.4057Z" fill="#424242"/>
<path fill-rule="evenodd" clip-rule="evenodd" d="M164.788 54.0362C164.788 54.506 164.408 54.8869 163.938 54.8869C163.468 54.8869 163.087 54.506 163.087 54.0362C163.087 53.5664 163.468 53.1855 163.938 53.1855C164.408 53.1855 164.788 53.5664 164.788 54.0362ZM165.788 54.0362C165.788 55.0583 164.96 55.8869 163.938 55.8869C162.916 55.8869 162.087 55.0583 162.087 54.0362C162.087 53.0141 162.916 52.1855 163.938 52.1855C164.96 52.1855 165.788 53.0141 165.788 54.0362ZM170.649 54.0362C170.649 54.506 170.268 54.8869 169.799 54.8869C169.329 54.8869 168.948 54.506 168.948 54.0362C168.948 53.5664 169.329 53.1855 169.799 53.1855C170.268 53.1855 170.649 53.5664 170.649 54.0362ZM171.649 54.0362C171.649 55.0583 170.821 55.8869 169.799 55.8869C168.776 55.8869 167.948 55.0583 167.948 54.0362C167.948 53.0141 168.776 52.1855 169.799 52.1855C170.821 52.1855 171.649 53.0141 171.649 54.0362ZM176.275 54.8869C176.744 54.8869 177.125 54.506 177.125 54.0362C177.125 53.5664 176.744 53.1855 176.275 53.1855C175.805 53.1855 175.424 53.5664 175.424 54.0362C175.424 54.506 175.805 54.8869 176.275 54.8869ZM176.275 55.8869C177.297 55.8869 178.125 55.0583 178.125 54.0362C178.125 53.0141 177.297 52.1855 176.275 52.1855C175.252 52.1855 174.424 53.0141 174.424 54.0362C174.424 55.0583 175.252 55.8869 176.275 55.8869ZM162.256 56.3071C160.875 56.3071 159.756 57.4264 159.756 58.8071V62.8119C159.756 63.8263 160.459 64.6765 161.404 64.9019V70.6129C161.404 70.889 161.628 71.1129 161.904 71.1129C162.18 71.1129 162.404 70.889 162.404 70.6129V64.4604V59.4559C162.404 59.1798 162.18 58.9559 161.904 58.9559C161.628 58.9559 161.404 59.1798 161.404 59.4559V63.8461C161.021 63.6602 160.756 63.267 160.756 62.8119V58.8071C160.756 57.9787 161.427 57.3071 162.256 57.3071H165.672C165.948 57.3071 166.172 57.0832 166.172 56.8071C166.172 56.5309 165.948 56.3071 165.672 56.3071H162.256ZM168.32 56.3071C166.939 56.3071 165.82 57.4264 165.82 58.8071V63.4604C165.82 64.2888 166.491 64.9604 167.32 64.9604H167.409V70.6129C167.409 70.889 167.633 71.1129 167.909 71.1129C168.185 71.1129 168.409 70.889 168.409 70.6129V64.4604V59.4559C168.409 59.1798 168.185 58.9559 167.909 58.9559C167.633 58.9559 167.409 59.1798 167.409 59.4559V63.9604H167.32C167.043 63.9604 166.82 63.7365 166.82 63.4604V58.8071C166.82 57.9787 167.491 57.3071 168.32 57.3071H171.385C172.213 57.3071 172.885 57.9787 172.885 58.8071V63.4604C172.885 63.6749 172.75 63.8579 172.56 63.9289V59.4559C172.56 59.1798 172.336 58.9559 172.06 58.9559C171.784 58.9559 171.56 59.1798 171.56 59.4559V64.4604V70.6129C171.56 70.889 171.784 71.1129 172.06 71.1129C172.336 71.1129 172.56 70.889 172.56 70.6129V64.9503C173.306 64.8636 173.885 64.2296 173.885 63.4604V58.8071C173.885 57.4264 172.766 56.3071 171.385 56.3071H168.32ZM174.327 56.6009C174.051 56.6009 173.827 56.8248 173.827 57.1009C173.827 57.3771 174.051 57.6009 174.327 57.6009H177.743C178.572 57.6009 179.243 58.2725 179.243 59.1009V63.6361C179.243 64.0755 178.943 64.4446 178.536 64.549V59.4559C178.536 59.1798 178.312 58.9559 178.036 58.9559C177.76 58.9559 177.536 59.1798 177.536 59.4559V70.7601C177.536 71.0362 177.76 71.2601 178.036 71.2601C178.312 71.2601 178.536 71.0362 178.536 70.7601V65.5645C179.498 65.4485 180.243 64.6293 180.243 63.6361V59.1009C180.243 57.7202 179.124 56.6009 177.743 56.6009H174.327ZM164.288 64.2249C164.288 63.9487 164.064 63.7249 163.788 63.7249C163.512 63.7249 163.288 63.9487 163.288 64.2249V70.6129C163.288 70.889 163.512 71.1129 163.788 71.1129C164.064 71.1129 164.288 70.889 164.288 70.6129V64.2249ZM170.529 64.4604C170.529 64.1842 170.305 63.9604 170.029 63.9604C169.753 63.9604 169.529 64.1842 169.529 64.4604V70.6129C169.529 70.889 169.753 71.1129 170.029 71.1129C170.305 71.1129 170.529 70.889 170.529 70.6129V64.4604ZM176.74 64.4604C176.74 64.1842 176.516 63.9604 176.24 63.9604C175.964 63.9604 175.74 64.1842 175.74 64.4604V70.7601C175.74 71.0362 175.964 71.2601 176.24 71.2601C176.516 71.2601 176.74 71.0362 176.74 70.7601V64.4604ZM166.172 65.9028C166.172 65.6267 165.948 65.4028 165.672 65.4028C165.396 65.4028 165.172 65.6267 165.172 65.9028V70.6129C165.172 70.889 165.396 71.1129 165.672 71.1129C165.948 71.1129 166.172 70.889 166.172 70.6129V65.9028ZM174.827 65.9028C174.827 65.6267 174.603 65.4028 174.327 65.4028C174.051 65.4028 173.827 65.6267 173.827 65.9028V70.7601C173.827 71.0362 174.051 71.2601 174.327 71.2601C174.603 71.2601 174.827 71.0362 174.827 70.7601V65.9028Z" fill="#6D6D6D"/>
<path d="M224.257 83.4343H229.623V84.0171H224.257V83.4343ZM223.4 86.0829H230.429V86.6657H223.4V86.0829ZM226.546 83.7857H227.257V86.2629H226.546V83.7857ZM224.257 80.5714H224.977V83.6829H224.257V80.5714ZM236.951 79.92H237.662V85.6629H236.951V79.92ZM234.756 80.9229H237.216V81.4971H234.756V80.9229ZM232.699 86.9143H237.868V87.4971H232.699V86.9143ZM232.699 85.1657H233.411V87.1714H232.699V85.1657ZM231.739 80.4771H232.442V84.1371H231.739V80.4771ZM231.739 83.9143H232.322C232.871 83.9143 233.414 83.8943 233.951 83.8543C234.494 83.8143 235.065 83.74 235.665 83.6314L235.742 84.2229C235.125 84.3371 234.542 84.4143 233.994 84.4543C233.445 84.4886 232.888 84.5057 232.322 84.5057H231.739V83.9143ZM234.756 82.4057H237.216V82.98H234.756V82.4057Z" fill="#424242"/>
<path fill-rule="evenodd" clip-rule="evenodd" d="M234.962 54.2178C234.962 54.7879 234.5 55.25 233.93 55.25C233.36 55.25 232.897 54.7879 232.897 54.2178C232.897 53.6477 233.36 53.1855 233.93 53.1855C234.5 53.1855 234.962 53.6477 234.962 54.2178ZM235.962 54.2178C235.962 55.3401 235.052 56.25 233.93 56.25C232.807 56.25 231.897 55.3401 231.897 54.2178C231.897 53.0954 232.807 52.1855 233.93 52.1855C235.052 52.1855 235.962 53.0954 235.962 54.2178ZM232.081 56.0583C231.699 55.441 230.885 55.0474 230.121 55.4299C228.675 56.1543 227.671 57.5071 226.992 58.9913C226.31 60.4802 225.932 62.1518 225.767 63.5975C225.594 65.1089 226.848 66.2502 228.269 66.2564L228.487 69.4625C228.529 70.0819 229.044 70.5628 229.665 70.5628C230.297 70.5628 230.816 70.0651 230.844 69.4337L230.987 66.1504C231.449 65.934 231.724 65.4182 231.646 64.8996C231.37 63.083 231.641 61.6392 231.933 60.7995C233.139 61.8526 234.463 61.9322 235.425 61.6665C235.81 61.5601 235.932 61.2078 235.923 60.9653C235.914 60.7317 235.793 60.4608 235.53 60.3147C235.008 60.0246 234.394 59.3791 233.765 58.5566C233.148 57.7496 232.56 56.8315 232.081 56.0583ZM229.485 69.3946L229.271 66.2564H229.981L229.845 69.3902C229.841 69.4868 229.761 69.5628 229.665 69.5628C229.57 69.5628 229.491 69.4893 229.485 69.3946ZM230.035 57.835C230.369 58.7183 230.757 59.4265 231.181 59.9865C230.757 60.9113 230.305 62.7347 230.657 65.0498C230.665 65.106 230.649 65.1602 230.616 65.2001C230.585 65.2385 230.545 65.2564 230.503 65.2564H228.736H228.281C227.35 65.2564 226.666 64.5368 226.761 63.7112C226.918 62.3392 227.275 60.7759 227.901 59.4074C228.529 58.0342 229.405 56.9073 230.569 56.324C230.76 56.2284 231.051 56.2943 231.231 56.5846C231.713 57.3632 232.322 58.316 232.97 59.1641C233.439 59.7763 233.952 60.3676 234.476 60.796C233.777 60.7983 232.935 60.5193 232.154 59.6024C231.736 59.1102 231.327 58.4249 230.971 57.482C230.874 57.2236 230.585 57.0932 230.327 57.1907C230.068 57.2881 229.938 57.5766 230.035 57.835ZM235.301 61.7458C234.521 61.7458 233.888 62.3783 233.888 63.1585V70.5543C233.888 70.8305 234.112 71.0543 234.388 71.0543C234.665 71.0543 234.888 70.8305 234.888 70.5543V63.1585C234.888 62.9306 235.073 62.7458 235.301 62.7458C235.529 62.7458 235.714 62.9306 235.714 63.1585V63.3692C235.714 63.6453 235.938 63.8692 236.214 63.8692C236.49 63.8692 236.714 63.6453 236.714 63.3692V63.1585C236.714 62.3783 236.081 61.7458 235.301 61.7458Z" fill="#6D6D6D"/>
<defs>
<filter id="filter0_i_3398_197" x="80.7139" y="45" width="57.1426" height="50" filterUnits="userSpaceOnUse" color-interpolation-filters="sRGB">
<feFlood flood-opacity="0" result="BackgroundImageFix"/>
<feBlend mode="normal" in="SourceGraphic" in2="BackgroundImageFix" result="shape"/>
<feColorMatrix in="SourceAlpha" type="matrix" values="0 0 0 0 0 0 0 0 0 0 0 0 0 0 0 0 0 0 127 0" result="hardAlpha"/>
<feOffset/>
<feGaussianBlur stdDeviation="2.14286"/>
<feComposite in2="hardAlpha" operator="arithmetic" k2="-1" k3="1"/>
<feColorMatrix type="matrix" values="0 0 0 0 0 0 0 0 0 0.52 0 0 0 0 1 0 0 0 0.18 0"/>
<feBlend mode="normal" in2="shape" result="effect1_innerShadow_3398_197"/>
</filter>
<linearGradient id="paint0_linear_3398_197" x1="20.4937" y1="16.2539" x2="29.3161" y2="25.7562" gradientUnits="userSpaceOnUse">
<stop stop-color="#0864F0"/>
<stop offset="1" stop-color="#25CBFF"/>
</linearGradient>
</defs>
</svg>
