<svg width="31" height="31" viewBox="0 0 31 31" fill="none" xmlns="http://www.w3.org/2000/svg">
<path fill-rule="evenodd" clip-rule="evenodd" d="M18.9618 6.21777C18.9618 6.78786 18.4997 7.25 17.9296 7.25C17.3595 7.25 16.8974 6.78786 16.8974 6.21777C16.8974 5.64769 17.3595 5.18555 17.9296 5.18555C18.4997 5.18555 18.9618 5.64769 18.9618 6.21777ZM19.9618 6.21777C19.9618 7.34014 19.052 8.25 17.9296 8.25C16.8072 8.25 15.8974 7.34014 15.8974 6.21777C15.8974 5.09541 16.8072 4.18555 17.9296 4.18555C19.052 4.18555 19.9618 5.09541 19.9618 6.21777ZM16.0815 8.05829C15.6994 7.44103 14.8847 7.04742 14.1212 7.42987C12.675 8.15427 11.6708 9.50715 10.9917 10.9913C10.3104 12.4802 9.93242 14.1518 9.76699 15.5975C9.59405 17.1089 10.8476 18.2502 12.2689 18.2564L12.4869 21.4625C12.529 22.0819 13.0437 22.5628 13.6646 22.5628C14.2966 22.5628 14.8164 22.0651 14.8439 21.4337L14.9866 18.1504C15.4488 17.934 15.7243 17.4182 15.6455 16.8996C15.3696 15.083 15.6413 13.6392 15.9325 12.7995C17.1391 13.8526 18.4632 13.9322 19.425 13.6665C19.8102 13.5601 19.9317 13.2078 19.9226 12.9653C19.9139 12.7317 19.7928 12.4608 19.53 12.3147C19.0084 12.0246 18.3938 11.3791 17.7648 10.5566C17.1476 9.74957 16.5601 8.83147 16.0815 8.05829ZM13.4846 21.3946L13.2712 18.2564H13.9811L13.8448 21.3902C13.8406 21.4868 13.7612 21.5628 13.6646 21.5628C13.5697 21.5628 13.491 21.4893 13.4846 21.3946ZM14.0355 9.83498C14.3687 10.7183 14.7567 11.4265 15.1811 11.9865C14.7573 12.9113 14.3052 14.7347 14.6569 17.0498C14.6654 17.106 14.6487 17.1602 14.6161 17.2001C14.5847 17.2385 14.5455 17.2564 14.5033 17.2564H12.736H12.2806C11.3502 17.2564 10.666 16.5368 10.7605 15.7112C10.9175 14.3392 11.2749 12.7759 11.901 11.4074C12.5293 10.0342 13.4046 8.90725 14.5691 8.32398C14.7599 8.2284 15.0515 8.29427 15.2312 8.5846C15.7131 9.36323 16.3219 10.316 16.9704 11.1641C17.4386 11.7763 17.9522 12.3676 18.4761 12.796C17.7775 12.7983 16.9346 12.5193 16.1545 11.6024C15.7357 11.1102 15.3268 10.4249 14.9711 9.48199C14.8736 9.22363 14.5851 9.0932 14.3268 9.19067C14.0684 9.28815 13.938 9.57661 14.0355 9.83498ZM19.3012 13.7458C18.521 13.7458 17.8884 14.3783 17.8884 15.1585V22.5543C17.8884 22.8305 18.1123 23.0543 18.3884 23.0543C18.6646 23.0543 18.8884 22.8305 18.8884 22.5543V15.1585C18.8884 14.9306 19.0732 14.7458 19.3012 14.7458C19.5292 14.7458 19.714 14.9306 19.714 15.1585V15.3692C19.714 15.6453 19.9378 15.8692 20.214 15.8692C20.4901 15.8692 20.714 15.6453 20.714 15.3692V15.1585C20.714 14.3783 20.0815 13.7458 19.3012 13.7458Z" fill="#6D6D6D"/>
</svg>
